<svg xmlns="http://www.w3.org/2000/svg" width="508.648" height="426.688" viewBox="0 0 508.648 426.688">
  <g id="Group_19992" data-name="Group 19992" transform="translate(-956.677 -15571.843)">
    <g id="Group_19771" data-name="Group 19771" transform="translate(-33.162 13998.187)">
      <g id="Group_19761" data-name="Group 19761" transform="translate(-4 -0.049)">
        <path id="Path_9524" data-name="Path 9524" d="M644.052,251.231c53.6,11.5,49.422-87.86,134.7-10.746,34.313,31.027,80.414-31.88,121.93-18.03,39.524,13.185,22.273,46.088,67.191,91.108,23.528,23.582-18.6,52.374-12.688,90.086,8.668,55.267-15.813,124.821-70.655,124.114-49.885-.643-84.176-35.152-133.714-10.149-30.595,15.441-137.912,47.562-174.734-10.779-32.069-50.811,31.15-72.464-12.242-116.328C490.656,316.523,560.12,233.223,644.052,251.231Z" transform="translate(425.626 1604.96) rotate(-14)" fill="#e7edf5" opacity="0.633"/>
        <g id="Group_19718" data-name="Group 19718" transform="translate(1059.042 1607.042)">
          <circle id="Ellipse_731" data-name="Ellipse 731" cx="23.5" cy="23.5" r="23.5" transform="translate(160.958 -0.042)" fill="#2c73e6"/>
          <circle id="Ellipse_732" data-name="Ellipse 732" cx="23.5" cy="23.5" r="23.5" transform="translate(160.958 315.958)" fill="#2c73e6"/>
          <circle id="Ellipse_733" data-name="Ellipse 733" cx="23.5" cy="23.5" r="23.5" transform="translate(-0.042 201.958) rotate(-90)" fill="#2c73e6"/>
          <circle id="Ellipse_734" data-name="Ellipse 734" cx="23.5" cy="23.5" r="23.5" transform="translate(315.958 201.958) rotate(-90)" fill="#2c73e6"/>
          <circle id="Ellipse_735" data-name="Ellipse 735" cx="25.547" cy="25.547" r="25.547" transform="translate(71.852 327.19) rotate(-135)" fill="#2c73e6"/>
          <circle id="Ellipse_736" data-name="Ellipse 736" cx="25.547" cy="25.547" r="25.547" transform="translate(295.853 103.189) rotate(-135)" fill="#2c73e6"/>
          <circle id="Ellipse_737" data-name="Ellipse 737" cx="25.547" cy="25.547" r="25.547" transform="translate(331.985 291.061) rotate(135)" fill="#2c73e6"/>
          <circle id="Ellipse_738" data-name="Ellipse 738" cx="25.547" cy="25.547" r="25.547" transform="translate(107.985 67.06) rotate(135)" fill="#2c73e6"/>
          <path id="Subtraction_65" data-name="Subtraction 65" d="M163.69,321.414h-5.958V267.831l.312-.008c1.779,0,3.682-.041,5.646-.14v53.731ZM49.72,269.943h-.008l-4.191-4.2L76.544,234.72c1.372,1.331,2.831,2.7,4.356,4.052L49.724,269.943Zm216.028-5.95h0L237.679,235.92c1.4-1.323,2.815-2.737,4.208-4.208l28.077,28.073-4.208,4.208Zm37.808-106.261H273.662c.1-1.989.148-3.994.148-5.958h29.746v5.958Zm-261.75,0H0v-5.958H41.654c0,1.89.049,3.887.152,5.95Zm202.936-82.8h0c-1.389-1.57-2.761-3.041-4.064-4.364L265.748,45.5l4.216,4.216L244.746,74.934ZM73.582,71.827h-.008L45.521,43.762l4.2-4.216L77.794,67.619c-1.377,1.307-2.79,2.712-4.208,4.208ZM163.69,35.848h-.008c-2.026-.1-4.031-.148-5.95-.148V0h5.958V35.848Z" transform="translate(26.705 26.711)" fill="#3d74de"/>
        </g>
      </g>
    </g>
    <path id="Subtraction_85" data-name="Subtraction 85" d="M-12703.346,13351.2h0l-13.322-22.052h-18.656l-13.322,22.052-20.2-6.558,2.175-25.684-15.092-10.96-23.75,10-12.481-17.176,16.854-19.5c-2.465-7.576-3.221-9.906-5.463-16.821l-.3-.924-25.1-5.86v-21.237l25.1-5.863c2.58-7.957,3.28-10.113,5.763-17.746l-16.854-19.494,12.481-17.179,23.75,10.032,15.092-10.964-2.175-25.68,20.205-6.591,13.326,22.054h18.666l13.326-22.054,20.191,6.561-2.175,25.68,15.095,10.964,23.747-10,12.458,17.179-16.854,19.494c2.1,6.463,2.938,9.036,4.626,14.234l1.141,3.512,25.1,5.863v21.237l-25.1,5.86-1.632,5.025-.6,1.862c-1.037,3.191-1.932,5.948-3.53,10.857l16.854,19.5-12.481,17.176-23.75-10-15.092,10.96,2.175,25.684-20.194,6.558Zm-75.727-110.091a3.846,3.846,0,0,0-3.843,3.84,3.846,3.846,0,0,0,3.843,3.84h9.087a45.521,45.521,0,0,0,4.188,15.78,46.008,46.008,0,0,0,9.144,13.007,46.024,46.024,0,0,0,13.007,9.144,45.548,45.548,0,0,0,15.781,4.188V13300a3.94,3.94,0,0,0,3.84,3.84,3.844,3.844,0,0,0,3.84-3.84v-9.091a45.521,45.521,0,0,0,15.78-4.187,45.988,45.988,0,0,0,13.007-9.144,45.988,45.988,0,0,0,9.144-13.007,45.537,45.537,0,0,0,4.188-15.78h8.96a3.83,3.83,0,0,0,2.737-1.1,3.829,3.829,0,0,0,1.105-2.736,3.737,3.737,0,0,0-3.712-3.84h-8.964a47.4,47.4,0,0,0-2.176-10.706,45.489,45.489,0,0,0-4.479-9.65l-5.763,5.761a37.141,37.141,0,0,1,4.737,18.308,38.6,38.6,0,0,1-3.084,14.966,38.529,38.529,0,0,1-8.245,12.206,38.277,38.277,0,0,1-12.183,8.222,37.971,37.971,0,0,1-14.894,3.013,37.977,37.977,0,0,1-14.892-3.011,38.182,38.182,0,0,1-12.168-8.207,38.221,38.221,0,0,1-8.206-12.169,38,38,0,0,1-3.01-14.892,38,38,0,0,1,3.01-14.892,38.222,38.222,0,0,1,8.206-12.168,38.222,38.222,0,0,1,12.168-8.206,38,38,0,0,1,14.892-3.01,36.912,36.912,0,0,1,18.308,4.734l5.76-5.76a45.364,45.364,0,0,0-9.649-4.48,47.246,47.246,0,0,0-10.706-2.174v-8.964a3.829,3.829,0,0,0-1.1-2.734,3.83,3.83,0,0,0-2.735-1.105,3.844,3.844,0,0,0-3.84,3.84V13199a45.194,45.194,0,0,0-15.707,4.185,45.971,45.971,0,0,0-12.969,9.143,46.083,46.083,0,0,0-9.13,13.008,45.567,45.567,0,0,0-4.186,15.78Zm55.173-27.523a31.392,31.392,0,0,0-12.266,2.47,31.4,31.4,0,0,0-10.008,6.731,31.269,31.269,0,0,0-6.745,9.97,31.052,31.052,0,0,0-2.472,12.192,31.078,31.078,0,0,0,2.47,12.192,31.356,31.356,0,0,0,6.731,9.971,31.352,31.352,0,0,0,9.97,6.731,31.054,31.054,0,0,0,12.192,2.471,31.046,31.046,0,0,0,12.191-2.471,31.356,31.356,0,0,0,9.971-6.731,31.348,31.348,0,0,0,6.73-9.971,31.078,31.078,0,0,0,2.47-12.192,30.009,30.009,0,0,0-2.942-13.186l-10.37,10.37a10.135,10.135,0,0,1,1.953,4.113,9.269,9.269,0,0,1-.16,4.593,9.329,9.329,0,0,1-7.04,6.657l-18.051,4.095a11.355,11.355,0,0,1-2.178.255,9.538,9.538,0,0,1-6.785-2.814,9.646,9.646,0,0,1-2.432-4.081,9.231,9.231,0,0,1-.128-4.752l4.353-18.05a9.533,9.533,0,0,1,6.657-7.044,9.886,9.886,0,0,1,2.688-.382,9.458,9.458,0,0,1,6.019,2.175l10.37-10.367A29.988,29.988,0,0,0-12723.9,13213.589Z" transform="translate(13938.029 2539.076)" fill="#233160"/>
    <path id="Path_9581" data-name="Path 9581" d="M107.278,23.624a2.625,2.625,0,0,0-2.432-1.664H94.86V11.974A2.625,2.625,0,0,0,93.2,9.542a2.79,2.79,0,0,0-2.816.512l-9.6,9.6a2.528,2.528,0,0,0-.768,1.792v9.729L53.591,57.6l-4.225-4.225a2.667,2.667,0,0,0-2.56-.64,2.49,2.49,0,0,0-1.792,1.92l-4.1,18.05a2.761,2.761,0,0,0,.64,2.432,2.527,2.527,0,0,0,1.792.768,1.154,1.154,0,0,0,.64-.128l18.05-4.1a2.712,2.712,0,0,0,1.92-1.792,2.667,2.667,0,0,0-.64-2.56l-4.353-4.353L85.515,36.81h9.729a2.324,2.324,0,0,0,1.792-.768l9.6-9.6A2.243,2.243,0,0,0,107.278,23.624Z" transform="translate(1163.355 15718.105)" fill="#fff"/>
  </g>
</svg>
